<svg xmlns="http://www.w3.org/2000/svg" width="1024" height="1024" viewBox="0 0 1024 1024">
<g>
<path d="M 0.00 0.00 L 1024.00 0.00 L 1024.00 1024.00 L 0.00 1024.00 ZM 637.00 653.13 C642.16,654.80 649.33,654.90 753.50,654.71 L 864.50 654.50 L 870.37 652.06 C877.15,649.25 886.03,641.58 889.40,635.62 C889.97,634.61 890.47,633.77 890.92,632.90 C894.50,625.92 894.50,617.10 894.50,511.24 L 894.50 500.00 C894.50,387.33 894.37,378.11 892.76,373.11 C888.98,361.38 881.58,352.98 871.42,348.89 L 865.50 346.50 L 534.50 346.50 L 528.50 348.90 C518.03,353.10 512.25,360.22 500.72,383.09 C491.32,401.74 486.81,410.48 471.33,440.00 C446.66,487.03 442.77,494.82 443.44,495.91 C443.74,496.40 449.28,501.08 455.75,506.33 C462.21,511.57 471.13,518.93 475.56,522.68 C484.70,530.41 507.77,549.79 541.56,578.15 C564.12,597.07 582.33,612.37 586.67,616.02 C587.86,617.02 593.06,621.36 598.23,625.67 C603.40,629.98 611.43,636.70 616.07,640.62 C625.28,648.39 628.69,650.43 637.00,653.13 ZM 250.00 753.11 C279.41,759.61 312.85,747.56 332.28,723.47 C357.48,692.20 357.35,648.18 331.96,617.03 C322.41,605.32 322.57,603.81 334.81,589.57 C339.59,584.01 346.61,575.76 350.41,571.23 C354.20,566.70 357.46,563.00 357.64,563.00 C357.82,563.00 364.60,568.51 372.70,575.25 C380.81,581.99 402.59,600.10 421.11,615.50 C439.64,630.90 463.01,650.25 473.06,658.50 C483.11,666.75 499.54,680.25 509.58,688.50 C528.85,704.35 539.25,711.28 550.72,715.95 C572.19,724.69 594.47,724.70 613.70,715.98 C620.40,712.95 632.00,705.27 632.00,703.88 C632.00,703.42 622.89,695.48 611.75,686.23 C584.57,663.66 528.43,617.21 518.50,609.07 C514.10,605.47 507.31,599.82 503.42,596.51 C499.53,593.20 491.65,586.65 485.92,581.94 C480.19,577.24 464.02,563.93 450.00,552.38 C435.98,540.83 421.77,529.16 418.44,526.44 C397.75,509.58 389.46,502.65 389.20,501.96 C388.93,501.28 414.19,453.30 475.00,339.00 C484.21,321.67 498.16,295.35 506.00,280.50 C513.83,265.65 523.76,246.98 528.07,239.00 C528.69,237.86 529.27,236.79 529.81,235.79 C535.46,225.36 537.07,222.38 536.21,221.20 C535.78,220.62 534.75,220.47 533.30,220.08 C510.65,213.98 488.79,218.04 468.43,232.11 C453.80,242.23 446.04,252.72 426.77,288.50 C419.36,302.25 408.45,322.50 402.52,333.50 C391.69,353.61 370.25,392.94 352.93,424.50 C347.79,433.85 341.10,446.05 338.05,451.62 C335.00,457.18 331.81,462.74 330.97,463.98 L 329.44 466.22 L 315.47 462.58 C297.94,458.01 286.14,454.16 283.32,452.09 C281.22,450.56 281.16,450.04 281.72,437.33 C282.64,416.50 279.15,401.29 269.89,385.69 C264.87,377.25 253.54,365.13 245.68,359.78 C230.97,349.79 217.43,345.77 198.00,345.61 C181.63,345.48 173.52,347.21 160.50,353.61 C141.89,362.77 127.90,377.84 120.16,397.07 C113.99,412.40 112.39,431.06 115.88,447.00 C122.49,477.11 146.07,501.16 177.14,509.49 C187.74,512.33 198.61,512.74 213.28,510.86 C220.12,509.98 224.55,510.00 232.35,510.94 C255.12,513.70 299.00,524.79 299.00,527.78 C299.00,528.90 261.88,572.67 252.93,582.11 C248.70,586.57 240.60,591.80 231.65,595.86 C200.65,609.91 183.00,637.74 183.00,672.54 C183.00,711.57 210.24,744.33 250.00,753.11 ZM 277.20 716.87 C266.70,719.10 257.32,717.80 246.33,712.58 C236.08,707.71 229.86,701.55 224.71,691.15 L 220.50 682.65 L 220.51 670.58 C220.52,659.53 220.76,658.00 223.25,652.65 C229.25,639.78 238.72,630.67 250.54,626.38 C268.21,619.97 286.29,623.46 299.22,635.79 C302.51,638.93 306.28,643.34 307.60,645.58 C317.14,661.85 316.54,682.18 306.07,697.40 C299.67,706.70 287.98,714.59 277.20,716.87 ZM 211.22 473.01 C179.22,482.90 146.47,454.63 151.90,421.80 C154.33,407.04 164.76,393.22 178.22,386.91 C185.29,383.60 185.86,383.50 198.00,383.50 C209.98,383.50 210.78,383.63 217.22,386.68 C228.78,392.16 237.73,402.21 242.06,414.58 C243.78,419.48 244.08,422.31 243.78,431.00 C243.46,440.32 243.07,442.23 240.27,448.00 C234.32,460.30 224.22,469.00 211.22,473.01 ZM 700.59 615.54 C694.27,619.67 685.82,617.69 681.25,611.00 L 679.00 607.70 L 679.00 499.72 C679.00,391.82 679.00,391.73 681.10,388.34 C683.71,384.12 687.68,382.00 693.00,382.00 C698.63,382.00 702.61,384.31 704.99,388.98 C706.97,392.85 707.00,394.72 707.00,500.21 C706.99,604.79 706.94,607.58 705.04,610.70 C703.97,612.45 701.97,614.63 700.59,615.54 ZM 744.80 570.37 C737.35,575.17 727.40,571.48 724.07,562.68 C723.35,560.80 723.00,539.60 723.00,498.68 C723.00,442.41 723.14,437.22 724.75,434.07 C727.44,428.81 731.27,426.50 737.32,426.50 C743.93,426.50 748.18,429.32 749.82,434.81 C750.67,437.63 751.00,456.09 751.00,500.62 C750.99,560.19 750.92,562.62 749.04,565.70 C747.97,567.45 746.06,569.56 744.80,570.37 ZM 657.34 570.29 C653.25,572.35 649.89,572.89 646.79,571.99 C642.67,570.78 638.40,567.37 637.11,564.27 C636.27,562.24 636.03,544.24 636.23,497.99 C636.49,436.30 636.56,434.42 638.50,431.78 C639.60,430.28 642.39,428.31 644.71,427.41 C651.71,424.67 658.28,426.94 661.75,433.31 C663.34,436.22 663.52,441.87 663.83,498.16 C664.16,558.02 664.11,559.96 662.17,564.34 C660.95,567.10 659.07,569.41 657.34,570.29 ZM 613.72 538.03 C607.43,541.87 598.48,539.71 594.30,533.34 C592.69,530.88 592.47,527.54 592.19,501.59 C591.84,468.14 592.21,465.93 598.90,462.18 C606.34,457.99 614.88,460.33 618.10,467.42 C619.77,471.08 619.96,474.43 619.98,500.13 C620.00,531.99 619.60,534.45 613.72,538.03 ZM 787.09 538.45 C781.28,541.46 774.62,539.79 769.50,534.04 C767.61,531.91 767.48,530.15 767.21,500.93 C766.96,474.29 767.14,469.64 768.51,466.99 C773.11,458.08 786.78,457.68 792.04,466.30 C793.86,469.29 793.99,471.51 793.99,500.00 C793.99,528.49 793.86,530.71 792.04,533.70 C790.97,535.46 788.74,537.60 787.09,538.45 ZM 568.36 523.62 C563.59,525.62 560.92,525.34 556.31,522.35 C550.06,518.30 549.00,515.08 549.00,500.22 C549.00,490.11 549.36,486.79 550.75,484.02 C554.41,476.74 563.13,473.95 569.70,477.96 C575.26,481.35 576.00,484.10 576.00,501.32 C576.00,515.61 575.84,516.93 573.83,519.49 C572.64,521.00 570.18,522.86 568.36,523.62 ZM 828.28 523.63 C824.57,525.21 823.60,525.23 819.50,523.79 C815.17,522.28 812.14,519.17 811.00,515.07 C809.39,509.26 809.75,488.67 811.55,484.18 C814.44,476.95 824.02,473.89 830.81,478.03 C836.24,481.33 837.19,485.13 836.82,502.06 C836.51,516.23 836.40,516.96 834.00,519.55 C832.62,521.04 830.05,522.87 828.28,523.63 ZM 965.09 986.51 C966.34,989.53 967.65,992.00 968.00,992.00 C968.35,992.00 969.64,989.56 970.88,986.58 C973.62,979.96 980.69,973.05 987.28,970.53 C989.88,969.54 992.00,968.40 992.00,968.00 C992.00,967.60 989.99,966.50 987.53,965.56 C980.86,963.02 973.61,956.00 970.91,949.49 C969.66,946.47 968.35,944.00 968.00,944.00 C967.65,944.00 966.36,946.44 965.12,949.42 C962.38,956.04 955.31,962.95 948.72,965.47 C946.12,966.46 944.00,967.60 944.00,968.00 C944.00,968.40 946.01,969.50 948.47,970.44 C955.14,972.98 962.39,980.00 965.09,986.51 ZM 351.61 528.38 C347.17,530.49 343.47,530.40 338.32,528.06 C326.96,522.90 325.37,505.91 335.68,499.84 C348.48,492.31 364.70,503.27 361.01,516.95 C359.69,521.87 356.08,526.26 351.61,528.38 Z" fill="rgb(0,0,0)"/>
<path d="M 965.09 986.51 C962.39,980.00 955.14,972.98 948.47,970.44 C946.01,969.50 944.00,968.40 944.00,968.00 C944.00,967.60 946.12,966.46 948.72,965.47 C955.31,962.95 962.38,956.04 965.12,949.42 C966.36,946.44 967.65,944.00 968.00,944.00 C968.35,944.00 969.66,946.47 970.91,949.49 C973.61,956.00 980.86,963.02 987.53,965.56 C989.99,966.50 992.00,967.60 992.00,968.00 C992.00,968.40 989.88,969.54 987.28,970.53 C980.69,973.05 973.62,979.96 970.88,986.58 C969.64,989.56 968.35,992.00 968.00,992.00 C967.65,992.00 966.34,989.53 965.09,986.51 Z" fill="rgb(104,94,140)"/>
<path d="M 637.00 653.13 C628.69,650.43 625.28,648.39 616.07,640.62 C611.43,636.70 603.40,629.98 598.23,625.67 C593.06,621.36 587.86,617.02 586.67,616.02 C582.33,612.37 564.12,597.07 541.56,578.15 C507.77,549.79 484.70,530.41 475.56,522.68 C471.13,518.93 462.21,511.57 455.75,506.33 C449.28,501.08 443.74,496.40 443.44,495.91 C442.77,494.82 446.66,487.03 471.33,440.00 C486.81,410.48 491.32,401.74 500.72,383.09 C512.25,360.22 518.03,353.10 528.50,348.90 L 534.50 346.50 L 865.50 346.50 L 871.42 348.89 C881.58,352.98 888.98,361.38 892.76,373.11 C894.37,378.11 894.50,387.33 894.50,500.00 L 894.50 511.24 L 894.50 511.24 C894.50,617.10 894.50,625.92 890.92,632.90 C890.47,633.77 889.97,634.61 889.40,635.62 C886.03,641.58 877.15,649.25 870.37,652.06 L 864.50 654.50 L 753.50 654.71 C649.33,654.90 642.16,654.80 637.00,653.13 ZM 700.59 615.54 C701.97,614.63 703.97,612.45 705.04,610.70 C706.94,607.58 706.99,604.79 707.00,500.21 C707.00,394.72 706.97,392.85 704.99,388.98 C702.61,384.31 698.63,382.00 693.00,382.00 C687.68,382.00 683.71,384.12 681.10,388.34 C679.00,391.73 679.00,391.82 679.00,499.72 L 679.00 607.70 L 681.25 611.00 C685.82,617.69 694.27,619.67 700.59,615.54 ZM 744.80 570.37 C746.06,569.56 747.97,567.45 749.04,565.70 C750.92,562.62 750.99,560.19 751.00,500.62 C751.00,456.09 750.67,437.63 749.82,434.81 C748.18,429.32 743.93,426.50 737.32,426.50 C731.27,426.50 727.44,428.81 724.75,434.07 C723.14,437.22 723.00,442.41 723.00,498.68 C723.00,539.60 723.35,560.80 724.07,562.68 C727.40,571.48 737.35,575.17 744.80,570.37 ZM 657.34 570.29 C659.07,569.41 660.95,567.10 662.17,564.34 C664.11,559.96 664.16,558.02 663.83,498.16 C663.52,441.87 663.34,436.22 661.75,433.31 C658.28,426.94 651.71,424.67 644.71,427.41 C642.39,428.31 639.60,430.28 638.50,431.78 C636.56,434.42 636.49,436.30 636.23,497.99 C636.03,544.24 636.27,562.24 637.11,564.27 C638.40,567.37 642.67,570.78 646.79,571.99 C649.89,572.89 653.25,572.35 657.34,570.29 ZM 613.72 538.03 C619.60,534.45 620.00,531.99 619.98,500.13 C619.96,474.43 619.77,471.08 618.10,467.42 C614.88,460.33 606.34,457.99 598.90,462.18 C592.21,465.93 591.84,468.14 592.19,501.59 C592.47,527.54 592.69,530.88 594.30,533.34 C598.48,539.71 607.43,541.87 613.72,538.03 ZM 787.09 538.45 C788.74,537.60 790.97,535.46 792.04,533.70 C793.86,530.71 793.99,528.49 793.99,500.00 C793.99,471.51 793.86,469.29 792.04,466.30 C786.78,457.68 773.11,458.08 768.51,466.99 C767.14,469.64 766.96,474.29 767.21,500.93 C767.48,530.15 767.61,531.91 769.50,534.04 C774.62,539.79 781.28,541.46 787.09,538.45 ZM 568.36 523.62 C570.18,522.86 572.64,521.00 573.83,519.49 C575.84,516.93 576.00,515.61 576.00,501.32 C576.00,484.10 575.26,481.35 569.70,477.96 C563.13,473.95 554.41,476.74 550.75,484.02 C549.36,486.79 549.00,490.11 549.00,500.22 C549.00,515.08 550.06,518.30 556.31,522.35 C560.92,525.34 563.59,525.62 568.36,523.62 ZM 828.28 523.63 C830.05,522.87 832.62,521.04 834.00,519.55 C836.40,516.96 836.51,516.23 836.82,502.06 C837.19,485.13 836.24,481.33 830.81,478.03 C824.02,473.89 814.44,476.95 811.55,484.18 C809.75,488.67 809.39,509.26 811.00,515.07 C812.14,519.17 815.17,522.28 819.50,523.79 C823.60,525.23 824.57,525.21 828.28,523.63 Z" fill="rgb(129,94,249)"/>
<path d="M 250.00 753.11 C210.24,744.33 183.00,711.57 183.00,672.54 C183.00,637.74 200.65,609.91 231.65,595.86 C240.60,591.80 248.70,586.57 252.93,582.11 C261.88,572.67 299.00,528.90 299.00,527.78 C299.00,524.79 255.12,513.70 232.35,510.94 C224.55,510.00 220.12,509.98 213.28,510.86 C198.61,512.74 187.74,512.33 177.14,509.49 C146.07,501.16 122.49,477.11 115.88,447.00 C112.39,431.06 113.99,412.40 120.16,397.07 C127.90,377.84 141.89,362.77 160.50,353.61 C173.52,347.21 181.63,345.48 198.00,345.61 C217.43,345.77 230.97,349.79 245.68,359.78 C253.54,365.13 264.87,377.25 269.89,385.69 C279.15,401.29 282.64,416.50 281.72,437.33 C281.16,450.04 281.22,450.56 283.32,452.09 C286.14,454.16 297.94,458.01 315.47,462.58 L 329.44 466.22 L 330.97 463.98 C331.81,462.74 335.00,457.18 338.05,451.62 C341.10,446.05 347.79,433.85 352.93,424.50 C370.25,392.94 391.69,353.61 402.52,333.50 C408.45,322.50 419.36,302.25 426.77,288.50 C446.04,252.72 453.80,242.23 468.43,232.11 C488.79,218.04 510.65,213.98 533.30,220.08 C537.96,221.33 538.31,220.05 528.07,239.00 C523.76,246.98 513.83,265.65 506.00,280.50 C498.16,295.35 484.21,321.67 475.00,339.00 C414.19,453.30 388.93,501.28 389.20,501.96 C389.46,502.65 397.75,509.58 418.44,526.44 C421.77,529.16 435.98,540.83 450.00,552.38 C464.02,563.93 480.19,577.24 485.92,581.94 C491.65,586.65 499.53,593.20 503.42,596.51 C507.31,599.82 514.10,605.47 518.50,609.07 C528.43,617.21 584.57,663.66 611.75,686.23 C622.89,695.48 632.00,703.42 632.00,703.88 C632.00,705.27 620.40,712.95 613.70,715.98 C594.47,724.70 572.19,724.69 550.72,715.95 C539.25,711.28 528.85,704.35 509.58,688.50 C499.54,680.25 483.11,666.75 473.06,658.50 C463.01,650.25 439.64,630.90 421.11,615.50 C402.59,600.10 380.81,581.99 372.70,575.25 C364.60,568.51 357.82,563.00 357.64,563.00 C357.46,563.00 354.20,566.70 350.41,571.23 C346.61,575.76 339.59,584.01 334.81,589.57 C322.57,603.81 322.41,605.32 331.96,617.03 C357.35,648.18 357.48,692.20 332.28,723.47 C312.85,747.56 279.41,759.61 250.00,753.11 ZM 277.20 716.87 C287.98,714.59 299.67,706.70 306.07,697.40 C316.54,682.18 317.14,661.85 307.60,645.58 C306.28,643.34 302.51,638.93 299.22,635.79 C286.29,623.46 268.21,619.97 250.54,626.38 C238.72,630.67 229.25,639.78 223.25,652.65 C220.76,658.00 220.52,659.53 220.51,670.58 L 220.50 682.65 L 224.71 691.15 C229.86,701.55 236.08,707.71 246.33,712.58 C257.32,717.80 266.70,719.10 277.20,716.87 ZM 351.61 528.38 C356.08,526.26 359.69,521.87 361.01,516.95 C364.70,503.27 348.48,492.31 335.68,499.84 C325.37,505.91 326.96,522.90 338.32,528.06 C343.47,530.40 347.17,530.49 351.61,528.38 ZM 211.22 473.01 C224.22,469.00 234.32,460.30 240.27,448.00 C243.07,442.23 243.46,440.32 243.78,431.00 C244.08,422.31 243.78,419.48 242.06,414.58 C237.73,402.21 228.78,392.16 217.22,386.68 C210.78,383.63 209.98,383.50 198.00,383.50 C185.86,383.50 185.29,383.60 178.22,386.91 C164.76,393.22 154.33,407.04 151.90,421.80 C146.47,454.63 179.22,482.90 211.22,473.01 Z" fill="rgb(248,248,248)"/>
</g>
</svg>