<svg xmlns="http://www.w3.org/2000/svg" width="1024" height="1024" viewBox="0 0 1024 1024">
<g>
<path d="M 865.20 647.93 C859.14,649.97 857.69,650.00 749.28,649.93 C745.33,649.93 741.52,649.93 737.84,649.93 C644.21,649.88 634.91,649.87 627.45,646.17 C626.34,645.62 625.26,644.98 623.96,644.25 C619.03,641.50 613.31,637.02 607.98,631.75 C606.45,630.24 604.82,629.00 604.35,629.00 C603.52,629.00 594.08,620.76 588.96,615.57 C587.57,614.16 585.89,613.00 585.24,613.00 C584.58,613.00 583.31,611.88 582.41,610.50 C581.51,609.12 580.21,608.00 579.53,608.00 C578.84,608.00 577.44,606.88 576.40,605.50 C575.37,604.12 574.03,603.00 573.43,603.00 C572.82,603.00 571.18,601.76 569.77,600.25 C568.36,598.74 566.00,596.60 564.52,595.50 C563.04,594.40 560.11,591.92 558.00,590.00 C555.89,588.08 552.93,585.60 551.42,584.50 C549.91,583.40 547.52,581.26 546.12,579.75 C544.71,578.24 543.03,577.00 542.39,577.00 C541.75,577.00 540.49,575.88 539.59,574.50 C538.69,573.12 537.34,572.00 536.59,572.00 C535.84,572.00 534.49,570.88 533.59,569.50 C532.69,568.12 531.36,567.00 530.64,567.00 C529.91,567.00 527.94,565.54 526.24,563.75 C523.18,560.51 520.05,557.76 514.04,553.00 C512.30,551.62 509.68,549.26 508.22,547.75 C506.75,546.24 505.16,545.00 504.68,545.00 C504.20,545.00 502.55,543.76 501.02,542.25 C499.50,540.74 496.77,538.38 494.97,537.00 C493.17,535.62 490.78,533.49 489.67,532.25 C488.55,531.01 487.21,530.00 486.67,530.00 C485.72,530.00 484.55,529.02 478.35,523.04 C476.62,521.37 474.87,520.00 474.46,520.00 C474.06,520.00 472.67,518.99 471.37,517.75 C470.08,516.51 467.38,514.15 465.39,512.50 C463.39,510.85 460.75,508.49 459.52,507.25 C458.28,506.01 456.86,505.00 456.36,505.00 C455.86,505.00 454.22,503.76 452.73,502.25 C446.08,495.52 444.36,494.00 443.37,494.00 C442.79,494.00 441.55,493.16 440.62,492.14 C439.04,490.39 439.05,490.08 440.72,487.14 C441.70,485.42 442.86,484.01 443.31,484.01 C443.75,484.00 443.84,483.55 443.50,483.00 C443.16,482.45 443.39,482.00 444.00,482.00 C444.61,482.00 444.84,481.55 444.50,481.00 C444.16,480.45 444.39,480.00 445.00,480.00 C445.61,480.00 445.86,479.59 445.55,479.08 C445.24,478.57 445.64,477.50 446.44,476.70 C447.25,475.90 447.63,474.96 447.29,474.62 C446.95,474.28 447.22,474.00 447.89,474.00 C448.57,474.00 448.84,473.55 448.50,473.00 C448.16,472.45 448.39,472.00 449.00,472.00 C449.61,472.00 449.84,471.55 449.50,471.00 C449.16,470.45 449.43,470.00 450.11,470.00 C450.78,470.00 451.05,469.72 450.71,469.38 C450.37,469.04 450.75,468.10 451.56,467.30 C452.36,466.50 452.76,465.43 452.45,464.92 C452.14,464.41 452.43,464.00 453.11,464.00 C453.78,464.00 454.06,463.73 453.72,463.39 C453.39,463.05 454.21,461.04 455.56,458.91 C456.90,456.78 458.00,454.58 458.00,454.02 C458.00,453.46 458.40,453.00 458.88,453.00 C459.83,453.00 462.63,446.97 462.24,445.75 C462.11,445.34 462.48,445.00 463.06,445.00 C463.64,445.00 463.84,444.55 463.50,444.00 C463.16,443.45 463.39,443.00 464.00,443.00 C464.61,443.00 464.84,442.55 464.50,442.00 C464.16,441.45 464.39,441.00 465.00,441.00 C465.61,441.00 465.84,440.55 465.50,440.00 C465.16,439.45 465.39,439.00 466.00,439.00 C466.61,439.00 466.84,438.55 466.50,438.00 C466.16,437.45 466.31,437.00 466.84,437.00 C467.37,437.00 468.63,434.98 469.65,432.50 C470.67,430.03 471.86,428.01 472.31,428.00 C472.75,428.00 472.84,427.55 472.50,427.00 C472.16,426.45 472.39,426.00 473.00,426.00 C473.61,426.00 473.84,425.55 473.50,425.00 C473.16,424.45 473.39,424.00 474.00,424.00 C474.61,424.00 474.84,423.55 474.50,423.00 C474.16,422.45 474.39,422.00 475.00,422.00 C475.61,422.00 475.84,421.55 475.50,421.00 C475.16,420.45 475.39,420.00 476.00,420.00 C476.61,420.00 476.84,419.55 476.50,419.00 C476.16,418.45 476.39,418.00 477.00,418.00 C477.61,418.00 477.84,417.55 477.50,417.00 C477.16,416.45 477.39,416.00 478.00,416.00 C478.61,416.00 478.84,415.55 478.50,415.00 C478.16,414.45 478.39,414.00 479.00,414.00 C479.61,414.00 479.84,413.55 479.50,413.00 C479.16,412.45 479.31,412.00 479.82,412.00 C480.34,412.00 481.77,409.52 483.00,406.50 C484.23,403.48 485.71,401.00 486.28,401.00 C486.86,401.00 487.05,400.72 486.71,400.38 C486.37,400.04 486.75,399.10 487.56,398.30 C488.36,397.50 488.76,396.43 488.45,395.92 C488.14,395.41 488.39,395.00 489.00,395.00 C489.61,395.00 489.84,394.55 489.50,394.00 C489.16,393.45 489.39,393.00 490.00,393.00 C490.61,393.00 490.84,392.55 490.50,392.00 C490.16,391.45 490.39,391.00 491.00,391.00 C491.61,391.00 491.84,390.55 491.50,390.00 C491.16,389.45 491.39,389.00 492.00,389.00 C492.61,389.00 492.84,388.55 492.50,388.00 C492.16,387.45 492.39,387.00 493.00,387.00 C493.61,387.00 493.84,386.55 493.50,386.00 C493.16,385.45 493.39,385.00 494.00,385.00 C494.61,385.00 494.84,384.55 494.50,384.00 C494.16,383.45 494.39,383.00 495.00,383.00 C495.61,383.00 495.86,382.58 495.54,382.07 C495.23,381.56 495.43,380.85 496.00,380.50 C497.25,379.73 501.48,371.80 501.20,370.75 C501.09,370.34 501.48,370.00 502.06,370.00 C502.64,370.00 502.84,369.55 502.50,369.00 C502.16,368.45 502.43,368.00 503.11,368.00 C503.78,368.00 504.05,367.72 503.71,367.38 C503.37,367.04 503.75,366.10 504.56,365.30 C505.36,364.50 505.76,363.43 505.45,362.92 C505.14,362.41 505.39,362.00 506.00,362.00 C506.61,362.00 506.84,361.55 506.50,361.00 C506.16,360.45 506.39,360.00 507.00,360.00 C507.61,360.00 507.85,359.57 507.53,359.05 C507.21,358.53 507.90,357.59 509.06,356.97 C510.22,356.35 510.91,355.57 510.58,355.25 C509.78,354.45 513.00,351.00 514.55,351.00 C515.23,351.00 516.05,350.33 516.36,349.50 C516.68,348.67 517.63,348.00 518.47,348.00 C519.31,348.00 520.00,347.58 520.00,347.07 C520.00,346.56 522.45,345.23 525.45,344.11 C530.79,342.11 533.02,342.06 641.70,341.79 C741.64,341.53 850.37,341.58 858.70,341.89 C860.46,341.96 863.16,342.53 864.70,343.16 C866.24,343.79 868.17,344.44 868.98,344.60 C869.80,344.76 870.62,345.37 870.82,345.95 C871.01,346.54 871.58,346.76 872.09,346.45 C872.59,346.14 873.00,346.36 873.00,346.94 C873.00,347.52 873.52,348.00 874.16,348.00 C876.39,348.00 882.13,353.23 885.51,358.34 C886.39,359.66 887.15,360.71 887.81,361.82 C892.07,369.01 892.04,378.73 891.81,482.15 C891.79,487.39 891.78,492.87 891.77,498.60 L 891.50 621.50 L 888.78 627.00 C883.45,637.81 876.22,644.22 865.20,647.93 ZM 686.75 612.00 C687.16,612.80 695.00,612.67 695.00,611.87 C695.00,611.46 695.95,610.83 697.11,610.47 C699.92,609.57 703.02,606.85 702.39,605.82 C702.11,605.37 702.35,605.00 702.92,605.00 C703.74,605.00 704.54,476.41 704.25,390.50 C704.23,384.93 700.71,379.98 695.30,377.92 C688.52,375.35 679.98,378.67 677.84,384.73 C676.75,387.78 676.50,408.84 676.50,495.68 L 676.50 602.85 L 678.60 605.68 C679.75,607.23 682.00,609.17 683.60,610.00 C685.19,610.83 686.61,611.72 686.75,612.00 ZM 730.40 566.83 C730.95,567.73 738.05,566.86 741.50,565.46 C744.18,564.38 748.17,560.08 747.50,559.00 C747.21,558.53 747.42,557.86 747.98,557.51 C748.66,557.10 748.99,535.77 748.97,494.69 C748.94,442.22 748.71,432.20 747.50,430.60 C746.71,429.56 746.25,428.41 746.48,428.04 C746.70,427.67 745.02,426.16 742.74,424.69 C737.67,421.40 731.90,421.15 727.19,424.03 C726.24,424.61 725.43,425.07 724.75,425.67 C721.00,428.99 721.00,436.56 721.00,491.28 L 721.00 494.81 L 721.00 556.69 L 723.38 561.09 C724.69,563.52 726.26,565.39 726.88,565.25 C727.50,565.11 728.00,565.48 728.00,566.06 C728.00,566.64 728.42,566.86 728.93,566.54 C729.44,566.23 730.10,566.36 730.40,566.83 ZM 646.75 567.41 C647.83,568.50 653.97,565.87 656.69,563.16 C658.42,561.42 659.60,560.00 659.30,560.00 C659.00,560.00 659.24,559.41 659.84,558.69 C661.31,556.92 661.38,431.00 659.90,431.00 C659.34,431.00 659.16,430.55 659.50,430.00 C659.84,429.45 659.57,429.00 658.89,429.00 C658.22,429.00 657.96,428.71 658.31,428.35 C658.67,428.00 657.28,426.43 655.23,424.88 C652.39,422.73 650.38,422.05 646.80,422.03 C640.32,421.99 637.37,423.60 635.01,428.47 C633.06,432.50 633.00,434.52 633.00,494.50 C633.00,555.21 633.04,556.45 635.09,560.68 C636.24,563.06 637.81,565.00 638.59,565.00 C639.37,565.00 640.00,565.35 640.00,565.79 C640.00,566.22 641.44,566.68 643.20,566.82 C644.96,566.95 646.55,567.22 646.75,567.41 ZM 774.35 533.80 C777.73,534.91 780.72,535.47 781.00,535.04 C781.27,534.62 782.56,533.94 783.85,533.54 C786.48,532.72 789.31,530.16 790.92,527.15 C792.18,524.79 791.96,464.00 790.69,464.00 C790.25,464.00 790.16,463.55 790.50,462.99 C790.85,462.44 790.43,461.72 789.57,461.39 C788.71,461.06 788.27,460.38 788.58,459.87 C788.89,459.37 787.04,458.02 784.47,456.88 C777.03,453.59 769.85,455.71 766.27,462.26 C764.69,465.15 764.50,468.64 764.50,494.53 C764.50,530.09 764.63,530.62 774.35,533.80 ZM 597.72 533.87 C601.90,535.99 606.00,536.55 606.00,535.00 C606.00,534.45 606.59,534.00 607.31,534.00 C608.93,534.00 615.46,529.26 615.62,527.96 C615.69,527.43 615.84,526.89 615.96,526.75 C617.27,525.17 617.33,470.65 616.03,466.09 C615.56,464.48 615.44,462.89 615.76,462.58 C616.07,462.26 615.78,462.00 615.11,462.00 C614.43,462.00 614.10,461.65 614.37,461.22 C615.13,459.98 608.60,455.97 604.83,455.36 C600.11,454.59 594.49,457.15 592.03,461.19 C590.12,464.32 590.01,466.17 590.01,495.00 C590.01,523.58 590.13,525.70 591.98,528.73 C593.06,530.51 595.65,532.82 597.72,533.87 ZM 817.94 519.07 C819.35,519.51 821.57,519.65 822.87,519.38 C826.88,518.57 832.51,515.44 832.25,514.19 C832.11,513.53 832.41,513.00 832.90,513.00 C833.40,513.00 833.87,506.59 833.95,498.75 C834.02,490.91 834.34,483.49 834.65,482.25 C835.00,480.88 834.76,480.00 834.05,480.00 C833.41,480.00 833.16,479.55 833.50,479.00 C833.84,478.45 833.64,478.00 833.06,478.00 C832.48,478.00 832.00,477.33 832.00,476.51 C832.00,474.46 825.66,472.00 820.36,472.00 C816.76,472.00 815.30,472.61 812.24,475.42 L 808.50 478.84 L 808.18 494.34 C807.78,513.81 808.73,516.20 817.94,519.07 ZM 556.74 518.56 C560.42,519.87 561.06,519.86 565.85,518.48 C568.60,517.69 571.35,515.14 572.39,512.42 C573.41,509.76 573.69,480.00 572.69,480.00 C572.25,480.00 572.16,479.55 572.50,479.00 C572.84,478.45 572.67,478.00 572.13,478.00 C571.58,478.00 570.88,477.19 570.56,476.20 C569.21,471.93 557.09,470.56 552.51,474.17 C547.97,477.74 547.00,481.58 547.00,496.02 C547.00,512.66 548.25,515.55 556.74,518.56 Z" fill="rgb(50,61,79)"/>
<path d="M 288.00 745.13 C279.84,747.78 276.67,748.27 265.50,748.59 C251.36,749.00 244.01,747.86 232.12,743.40 C209.97,735.09 190.50,714.84 183.23,692.57 C176.55,672.10 178.06,647.80 187.14,629.67 C196.00,612.00 206.88,601.47 227.15,590.99 C243.91,582.31 246.23,580.32 265.78,557.74 C290.04,529.73 295.05,523.64 294.69,522.55 C293.80,519.83 263.42,511.45 239.62,507.36 C226.39,505.08 223.13,504.86 213.50,505.56 C194.83,506.91 181.15,506.61 174.12,504.71 C157.75,500.27 147.64,494.52 135.90,483.00 C125.94,473.23 120.30,465.01 116.12,454.14 C108.92,435.48 108.28,416.52 114.20,398.00 C122.74,371.30 144.91,350.03 171.45,343.08 C217.16,331.10 263.41,357.94 275.62,403.50 C277.11,409.06 277.51,414.10 277.52,427.98 L 277.55 445.45 L 280.73 447.60 C283.49,449.45 314.91,458.95 323.50,460.52 C326.46,461.06 326.60,460.88 333.90,447.28 C337.96,439.70 351.18,415.27 363.27,393.00 C375.35,370.73 389.63,344.40 395.00,334.50 C442.01,247.82 440.42,250.44 454.44,236.41 C463.41,227.43 465.69,225.74 475.01,221.15 C488.42,214.56 495.97,212.60 508.00,212.57 C517.33,212.56 529.25,214.28 532.07,216.06 C533.28,216.82 533.17,217.55 531.38,220.73 C528.86,225.21 506.18,267.37 489.28,299.00 C478.54,319.10 446.87,379.06 432.24,407.00 C429.22,412.77 425.28,420.20 423.49,423.50 C421.70,426.80 415.19,439.17 409.01,451.00 C402.84,462.83 394.87,477.77 391.30,484.20 C387.74,490.64 385.11,496.36 385.45,496.92 C385.97,497.75 407.50,515.66 420.39,525.99 C422.10,527.35 435.20,538.16 449.50,550.00 C482.71,577.51 479.78,575.07 500.09,592.05 C509.67,600.05 531.67,618.25 549.00,632.51 C566.33,646.76 589.96,666.31 601.52,675.96 C613.08,685.61 623.84,694.52 625.43,695.77 L 628.32 698.04 L 626.14 700.35 C622.91,703.79 610.48,710.60 601.98,713.59 C596.56,715.49 591.69,716.36 584.28,716.75 C562.89,717.87 544.51,712.19 524.94,698.41 C518.67,694.00 475.15,658.12 408.00,602.00 C398.38,593.96 382.24,580.57 372.13,572.26 L 353.77 557.14 L 340.13 573.18 C324.00,592.15 321.00,596.37 321.00,600.09 C321.00,601.97 323.07,605.58 327.37,611.21 C341.27,629.44 347.00,645.16 347.00,665.11 C347.00,701.43 323.20,733.70 288.00,745.13 ZM 250.10 710.42 C257.01,712.27 269.05,712.36 275.65,710.61 C293.18,705.94 307.14,690.43 310.19,672.25 C314.05,649.23 299.73,626.84 276.68,619.83 C267.20,616.95 255.35,617.61 245.59,621.55 C226.06,629.44 212.83,653.25 216.86,673.25 C220.46,691.14 233.78,706.03 250.10,710.42 ZM 182.50 468.38 C197.94,472.11 214.05,468.06 225.81,457.48 C232.00,451.91 236.20,445.42 239.04,437.00 C240.88,431.53 241.14,429.10 240.67,421.64 C240.21,414.27 239.52,411.53 236.60,405.37 C219.54,369.45 169.41,368.92 151.93,404.48 C148.60,411.25 148.50,411.81 148.50,423.48 C148.50,435.25 148.57,435.65 152.13,443.00 C154.12,447.12 157.42,452.41 159.46,454.75 C164.24,460.25 174.89,466.54 182.50,468.38 ZM 336.47 523.99 C344.15,526.35 352.52,522.60 356.13,515.19 C361.66,503.87 351.84,490.67 339.17,492.38 C325.46,494.23 320.30,510.21 330.28,519.96 C332.01,521.66 334.80,523.48 336.47,523.99 Z" fill="rgb(130,95,251)"/>
<path d="M 0.00 512.00 L 0.00 0.00 L 512.00 0.00 L 1024.00 0.00 L 1024.00 512.00 L 1024.00 1024.00 L 512.00 1024.00 L 0.00 1024.00 L 0.00 512.00 ZM 288.00 745.13 C323.20,733.70 347.00,701.43 347.00,665.11 C347.00,645.16 341.27,629.44 327.37,611.21 C323.07,605.58 321.00,601.97 321.00,600.09 C321.00,596.37 324.00,592.15 340.13,573.18 L 353.77 557.14 L 372.13 572.26 C382.24,580.57 398.38,593.96 408.00,602.00 C475.15,658.12 518.67,694.00 524.94,698.41 C544.51,712.19 562.89,717.87 584.28,716.75 C591.69,716.36 596.56,715.49 601.98,713.59 C610.48,710.60 622.91,703.79 626.14,700.35 L 628.32 698.04 L 625.43 695.77 C623.84,694.52 613.08,685.61 601.52,675.96 C589.96,666.31 566.33,646.76 549.00,632.51 C531.67,618.25 509.67,600.05 500.09,592.05 C479.78,575.07 482.71,577.51 449.50,550.00 C435.20,538.16 422.10,527.35 420.39,525.99 C407.50,515.66 385.97,497.75 385.45,496.92 C385.11,496.36 387.74,490.64 391.30,484.20 C394.87,477.77 402.84,462.83 409.01,451.00 C415.19,439.17 421.70,426.80 423.49,423.50 C425.28,420.20 429.22,412.77 432.24,407.00 C446.87,379.06 478.54,319.10 489.28,299.00 C506.18,267.37 528.86,225.21 531.38,220.73 C533.17,217.55 533.28,216.82 532.07,216.06 C529.25,214.28 517.33,212.56 508.00,212.57 C495.97,212.60 488.42,214.56 475.01,221.15 C465.69,225.74 463.41,227.43 454.44,236.41 C440.42,250.44 442.01,247.82 395.00,334.50 C389.63,344.40 375.35,370.73 363.27,393.00 C351.18,415.27 337.96,439.70 333.90,447.28 C326.60,460.88 326.46,461.06 323.50,460.52 C314.91,458.95 283.49,449.45 280.73,447.60 L 277.55 445.45 L 277.52 427.98 C277.51,414.10 277.11,409.06 275.62,403.50 C263.41,357.94 217.16,331.10 171.45,343.08 C144.91,350.03 122.74,371.30 114.20,398.00 C108.28,416.52 108.92,435.48 116.12,454.14 C120.30,465.01 125.94,473.23 135.90,483.00 C147.64,494.52 157.75,500.27 174.12,504.71 C181.15,506.61 194.83,506.91 213.50,505.56 C223.13,504.86 226.39,505.08 239.62,507.36 C263.42,511.45 293.80,519.83 294.69,522.55 C295.05,523.64 290.04,529.73 265.78,557.74 C246.23,580.32 243.91,582.31 227.15,590.99 C206.88,601.47 196.00,612.00 187.14,629.67 C178.06,647.80 176.55,672.10 183.23,692.57 C190.50,714.84 209.97,735.09 232.12,743.40 C244.01,747.86 251.36,749.00 265.50,748.59 C276.67,748.27 279.84,747.78 288.00,745.13 ZM 865.20 647.93 C876.22,644.22 883.45,637.81 888.78,627.00 L 891.50 621.50 L 891.77 498.60 C892.07,362.25 892.35,368.68 885.51,358.34 C882.13,353.23 876.39,348.00 874.16,348.00 C873.52,348.00 873.00,347.52 873.00,346.94 C873.00,346.36 872.59,346.14 872.09,346.45 C871.58,346.76 871.01,346.54 870.82,345.95 C870.62,345.37 869.80,344.76 868.98,344.60 C868.17,344.44 866.24,343.79 864.70,343.16 C863.16,342.53 860.46,341.96 858.70,341.89 C850.37,341.58 741.64,341.53 641.70,341.79 C533.02,342.06 530.79,342.11 525.45,344.11 C522.45,345.23 520.00,346.56 520.00,347.07 C520.00,347.58 519.31,348.00 518.47,348.00 C517.63,348.00 516.68,348.67 516.36,349.50 C516.05,350.33 515.23,351.00 514.55,351.00 C513.00,351.00 509.78,354.45 510.58,355.25 C510.91,355.57 510.22,356.35 509.06,356.97 C507.90,357.59 507.21,358.53 507.53,359.05 C507.85,359.57 507.61,360.00 507.00,360.00 C506.39,360.00 506.16,360.45 506.50,361.00 C506.84,361.55 506.61,362.00 506.00,362.00 C505.39,362.00 505.14,362.41 505.45,362.92 C505.76,363.43 505.36,364.50 504.56,365.30 C503.75,366.10 503.37,367.04 503.71,367.38 C504.05,367.72 503.78,368.00 503.11,368.00 C502.43,368.00 502.16,368.45 502.50,369.00 C502.84,369.55 502.64,370.00 502.06,370.00 C501.48,370.00 501.09,370.34 501.20,370.75 C501.48,371.80 497.25,379.73 496.00,380.50 C495.43,380.85 495.23,381.56 495.54,382.07 C495.86,382.58 495.61,383.00 495.00,383.00 C494.39,383.00 494.16,383.45 494.50,384.00 C494.84,384.55 494.61,385.00 494.00,385.00 C493.39,385.00 493.16,385.45 493.50,386.00 C493.84,386.55 493.61,387.00 493.00,387.00 C492.39,387.00 492.16,387.45 492.50,388.00 C492.84,388.55 492.61,389.00 492.00,389.00 C491.39,389.00 491.16,389.45 491.50,390.00 C491.84,390.55 491.61,391.00 491.00,391.00 C490.39,391.00 490.16,391.45 490.50,392.00 C490.84,392.55 490.61,393.00 490.00,393.00 C489.39,393.00 489.16,393.45 489.50,394.00 C489.84,394.55 489.61,395.00 489.00,395.00 C488.39,395.00 488.14,395.41 488.45,395.92 C488.76,396.43 488.36,397.50 487.56,398.30 C486.75,399.10 486.37,400.04 486.71,400.38 C487.05,400.72 486.86,401.00 486.28,401.00 C485.71,401.00 484.23,403.48 483.00,406.50 C481.77,409.52 480.34,412.00 479.82,412.00 C479.31,412.00 479.16,412.45 479.50,413.00 C479.84,413.55 479.61,414.00 479.00,414.00 C478.39,414.00 478.16,414.45 478.50,415.00 C478.84,415.55 478.61,416.00 478.00,416.00 C477.39,416.00 477.16,416.45 477.50,417.00 C477.84,417.55 477.61,418.00 477.00,418.00 C476.39,418.00 476.16,418.45 476.50,419.00 C476.84,419.55 476.61,420.00 476.00,420.00 C475.39,420.00 475.16,420.45 475.50,421.00 C475.84,421.55 475.61,422.00 475.00,422.00 C474.39,422.00 474.16,422.45 474.50,423.00 C474.84,423.55 474.61,424.00 474.00,424.00 C473.39,424.00 473.16,424.45 473.50,425.00 C473.84,425.55 473.61,426.00 473.00,426.00 C472.39,426.00 472.16,426.45 472.50,427.00 C472.84,427.55 472.75,428.00 472.31,428.00 C471.86,428.01 470.67,430.03 469.65,432.50 C468.63,434.98 467.37,437.00 466.84,437.00 C466.31,437.00 466.16,437.45 466.50,438.00 C466.84,438.55 466.61,439.00 466.00,439.00 C465.39,439.00 465.16,439.45 465.50,440.00 C465.84,440.55 465.61,441.00 465.00,441.00 C464.39,441.00 464.16,441.45 464.50,442.00 C464.84,442.55 464.61,443.00 464.00,443.00 C463.39,443.00 463.16,443.45 463.50,444.00 C463.84,444.55 463.64,445.00 463.06,445.00 C462.48,445.00 462.11,445.34 462.24,445.75 C462.63,446.97 459.83,453.00 458.88,453.00 C458.40,453.00 458.00,453.46 458.00,454.02 C458.00,454.58 456.90,456.78 455.56,458.91 C454.21,461.04 453.39,463.05 453.72,463.39 C454.06,463.73 453.78,464.00 453.11,464.00 C452.43,464.00 452.14,464.41 452.45,464.92 C452.76,465.43 452.36,466.50 451.56,467.30 C450.75,468.10 450.37,469.04 450.71,469.38 C451.05,469.72 450.78,470.00 450.11,470.00 C449.43,470.00 449.16,470.45 449.50,471.00 C449.84,471.55 449.61,472.00 449.00,472.00 C448.39,472.00 448.16,472.45 448.50,473.00 C448.84,473.55 448.57,474.00 447.89,474.00 C447.22,474.00 446.95,474.28 447.29,474.62 C447.63,474.96 447.25,475.90 446.44,476.70 C445.64,477.50 445.24,478.57 445.55,479.08 C445.86,479.59 445.61,480.00 445.00,480.00 C444.39,480.00 444.16,480.45 444.50,481.00 C444.84,481.55 444.61,482.00 444.00,482.00 C443.39,482.00 443.16,482.45 443.50,483.00 C443.84,483.55 443.75,484.00 443.31,484.01 C442.86,484.01 441.70,485.42 440.72,487.14 C439.05,490.08 439.04,490.39 440.62,492.14 C441.55,493.16 442.79,494.00 443.37,494.00 C444.36,494.00 446.08,495.52 452.73,502.25 C454.22,503.76 455.86,505.00 456.36,505.00 C456.86,505.00 458.28,506.01 459.52,507.25 C460.75,508.49 463.39,510.85 465.39,512.50 C467.38,514.15 470.08,516.51 471.37,517.75 C472.67,518.99 474.06,520.00 474.46,520.00 C474.87,520.00 476.62,521.37 478.35,523.04 C484.55,529.02 485.72,530.00 486.67,530.00 C487.21,530.00 488.55,531.01 489.67,532.25 C490.78,533.49 493.17,535.62 494.97,537.00 C496.77,538.38 499.50,540.74 501.02,542.25 C502.55,543.76 504.20,545.00 504.68,545.00 C505.16,545.00 506.75,546.24 508.22,547.75 C509.68,549.26 512.30,551.62 514.04,553.00 C520.05,557.76 523.18,560.51 526.24,563.75 C527.94,565.54 529.91,567.00 530.64,567.00 C531.36,567.00 532.69,568.12 533.59,569.50 C534.49,570.88 535.84,572.00 536.59,572.00 C537.34,572.00 538.69,573.12 539.59,574.50 C540.49,575.88 541.75,577.00 542.39,577.00 C543.03,577.00 544.71,578.24 546.12,579.75 C547.52,581.26 549.91,583.40 551.42,584.50 C552.93,585.60 555.89,588.08 558.00,590.00 C560.11,591.92 563.04,594.40 564.52,595.50 C566.00,596.60 568.36,598.74 569.77,600.25 C571.18,601.76 572.82,603.00 573.43,603.00 C574.03,603.00 575.37,604.12 576.40,605.50 C577.44,606.88 578.84,608.00 579.53,608.00 C580.21,608.00 581.51,609.12 582.41,610.50 C583.31,611.88 584.58,613.00 585.24,613.00 C585.89,613.00 587.57,614.16 588.96,615.57 C594.08,620.76 603.52,629.00 604.35,629.00 C604.82,629.00 606.45,630.24 607.98,631.75 C613.31,637.02 619.03,641.50 623.96,644.25 C634.36,650.06 629.93,649.86 749.28,649.93 C857.69,650.00 859.14,649.97 865.20,647.93 ZM 250.10 710.42 C233.78,706.03 220.46,691.14 216.86,673.25 C212.83,653.25 226.06,629.44 245.59,621.55 C255.35,617.61 267.20,616.95 276.68,619.83 C299.73,626.84 314.05,649.23 310.19,672.25 C307.14,690.43 293.18,705.94 275.65,710.61 C269.05,712.36 257.01,712.27 250.10,710.42 ZM 336.47 523.99 C334.80,523.48 332.01,521.66 330.28,519.96 C320.30,510.21 325.46,494.23 339.17,492.38 C351.84,490.67 361.66,503.87 356.13,515.19 C352.52,522.60 344.15,526.35 336.47,523.99 ZM 182.50 468.38 C174.89,466.54 164.24,460.25 159.46,454.75 C157.42,452.41 154.12,447.12 152.13,443.00 C148.57,435.65 148.50,435.25 148.50,423.48 C148.50,411.81 148.60,411.25 151.93,404.48 C169.41,368.92 219.54,369.45 236.60,405.37 C239.52,411.53 240.21,414.27 240.67,421.64 C241.14,429.10 240.88,431.53 239.04,437.00 C236.20,445.42 232.00,451.91 225.81,457.48 C214.05,468.06 197.94,472.11 182.50,468.38 ZM 686.75 612.00 C686.61,611.72 685.19,610.83 683.60,610.00 C682.00,609.17 679.75,607.23 678.60,605.68 L 676.50 602.85 L 676.50 495.68 C676.50,408.84 676.75,387.78 677.84,384.73 C679.98,378.67 688.52,375.35 695.30,377.92 C700.71,379.98 704.23,384.93 704.25,390.50 C704.54,476.41 703.74,605.00 702.92,605.00 C702.35,605.00 702.11,605.37 702.39,605.82 C703.02,606.85 699.92,609.57 697.11,610.47 C695.95,610.83 695.00,611.46 695.00,611.87 C695.00,612.67 687.16,612.80 686.75,612.00 ZM 646.75 567.41 C646.55,567.22 644.96,566.95 643.20,566.82 C641.44,566.68 640.00,566.22 640.00,565.79 C640.00,565.35 639.37,565.00 638.59,565.00 C637.81,565.00 636.24,563.06 635.09,560.68 C633.04,556.45 633.00,555.21 633.00,494.50 C633.00,434.52 633.06,432.50 635.01,428.47 C637.37,423.60 640.32,421.99 646.80,422.03 C650.38,422.05 652.39,422.73 655.23,424.88 C657.28,426.43 658.67,428.00 658.31,428.35 C657.96,428.71 658.22,429.00 658.89,429.00 C659.57,429.00 659.84,429.45 659.50,430.00 C659.16,430.55 659.34,431.00 659.90,431.00 C661.38,431.00 661.31,556.92 659.84,558.69 C659.24,559.41 659.00,560.00 659.30,560.00 C659.60,560.00 658.42,561.42 656.69,563.16 C653.97,565.87 647.83,568.50 646.75,567.41 ZM 730.40 566.83 C730.10,566.36 729.44,566.23 728.93,566.54 C728.42,566.86 728.00,566.64 728.00,566.06 C728.00,565.48 727.50,565.11 726.88,565.25 C726.26,565.39 724.69,563.52 723.38,561.09 L 721.00 556.69 L 721.00 494.81 C721.00,426.58 720.89,427.87 727.19,424.03 C731.90,421.15 737.67,421.40 742.74,424.69 C745.02,426.16 746.70,427.67 746.48,428.04 C746.25,428.41 746.71,429.56 747.50,430.60 C748.71,432.20 748.94,442.22 748.97,494.69 C748.99,535.77 748.66,557.10 747.98,557.51 C747.42,557.86 747.21,558.53 747.50,559.00 C748.17,560.08 744.18,564.38 741.50,565.46 C738.05,566.86 730.95,567.73 730.40,566.83 ZM 597.72 533.87 C595.65,532.82 593.06,530.51 591.98,528.73 C590.13,525.70 590.01,523.58 590.01,495.00 C590.01,466.17 590.12,464.32 592.03,461.19 C594.49,457.15 600.11,454.59 604.83,455.36 C608.60,455.97 615.13,459.98 614.37,461.22 C614.10,461.65 614.43,462.00 615.11,462.00 C615.78,462.00 616.07,462.26 615.76,462.58 C615.44,462.89 615.56,464.48 616.03,466.09 C617.33,470.65 617.27,525.17 615.96,526.75 C615.84,526.89 615.69,527.43 615.62,527.96 C615.46,529.26 608.93,534.00 607.31,534.00 C606.59,534.00 606.00,534.45 606.00,535.00 C606.00,536.55 601.90,535.99 597.72,533.87 ZM 774.35 533.80 C764.63,530.62 764.50,530.09 764.50,494.53 C764.50,468.64 764.69,465.15 766.27,462.26 C769.85,455.71 777.03,453.59 784.47,456.88 C787.04,458.02 788.89,459.37 788.58,459.87 C788.27,460.38 788.71,461.06 789.57,461.39 C790.43,461.72 790.85,462.44 790.50,462.99 C790.16,463.55 790.25,464.00 790.69,464.00 C791.96,464.00 792.18,524.79 790.92,527.15 C789.31,530.16 786.48,532.72 783.85,533.54 C782.56,533.94 781.27,534.62 781.00,535.04 C780.72,535.47 777.73,534.91 774.35,533.80 ZM 556.74 518.56 C548.25,515.55 547.00,512.66 547.00,496.02 C547.00,481.58 547.97,477.74 552.51,474.17 C557.09,470.56 569.21,471.93 570.56,476.20 C570.88,477.19 571.58,478.00 572.13,478.00 C572.67,478.00 572.84,478.45 572.50,479.00 C572.16,479.55 572.25,480.00 572.69,480.00 C573.69,480.00 573.41,509.76 572.39,512.42 C571.35,515.14 568.60,517.69 565.85,518.48 C561.06,519.86 560.42,519.87 556.74,518.56 ZM 817.94 519.07 C808.73,516.20 807.78,513.81 808.18,494.34 L 808.50 478.84 L 812.24 475.42 C815.30,472.61 816.76,472.00 820.36,472.00 C825.66,472.00 832.00,474.46 832.00,476.51 C832.00,477.33 832.48,478.00 833.06,478.00 C833.64,478.00 833.84,478.45 833.50,479.00 C833.16,479.55 833.41,480.00 834.05,480.00 C834.76,480.00 835.00,480.88 834.65,482.25 C834.34,483.49 834.02,490.91 833.95,498.75 C833.87,506.59 833.40,513.00 832.90,513.00 C832.41,513.00 832.11,513.53 832.25,514.19 C832.51,515.44 826.88,518.57 822.87,519.38 C821.57,519.65 819.35,519.51 817.94,519.07 Z" fill="rgb(254,254,254)"/>
</g>
</svg>